<svg xmlns="http://www.w3.org/2000/svg" version="1.1" xmlns:xlink="http://www.w3.org/1999/xlink" xmlns:svgjs="http://svgjs.dev/svgjs" width="100%" height="100%" viewBox="0 0 1000 600"><rect width="1000" height="600" x="0" y="0" fill="#ffff"/><g><circle r="166.66666666666666" cx="414.85888163248694" cy="437.0810607925571" fill="#292826" transform="matrix(0.5036419985343304,0,0,0.5036419985343304,0,79.86761949002651)"/><path d="M497.64522047462066 362.0810651919947L497.64522047462066 362.0810651919947L497.64522047462066 366.28831067911307Q490.48705975000956 366.5220465395085 486.80571994878096 367.8660277367824Q483.1243801475524 369.2392259166058 481.8680498979268 372.9205657178344Q480.6117196483012 376.601905519063 480.6117196483012 384.4028398597616L480.6117196483012 384.4028398597616L480.6117196483012 488.7366845437875Q480.6117196483012 496.3038830240907 481.8680498979268 500.10209075551694Q483.1243801475524 503.8710815043939 486.80571994878096 505.1274117540194Q490.48705975000956 506.4129589861945 497.64522047462066 506.8219967418866L497.64522047462066 506.8219967418866L497.64522047462066 511.029242229005Q492.7952013714148 510.6202044733129 485.54938969915537 510.50333654311515Q478.27436104434656 510.38646861291744 470.91168144188936 510.38646861291744L470.91168144188936 510.38646861291744Q462.73092632804804 510.38646861291744 455.57276560343695 510.50333654311515Q448.41460487882586 510.6202044733129 444.0028405138614 511.029242229005L444.0028405138614 511.029242229005L444.0028405138614 506.8219967418866Q451.1610012384725 506.4129589861945 454.8423410397011 505.1274117540194Q458.52368084092967 503.8710815043939 459.7800110905553 500.10209075551694Q461.0363413401809 496.3038830240907 461.0363413401809 488.7366845437875L461.0363413401809 488.7366845437875L461.0363413401809 373.03743364803216L461.8836338341145 373.6509902815702L410.3448766169144 512.0810536007846L406.98492362372957 512.0810536007846L353.9561002965084 375.5500941472834L353.9561002965084 486.6330618002283Q353.9561002965084 494.2002602805315 355.32929847633176 498.5243736978476Q356.7024966561551 502.81927013261424 360.7928742130757 504.6015060681297Q364.9124687525458 506.4129589861945 373.09322386638706 506.8219967418866L373.09322386638706 506.8219967418866L373.09322386638706 511.029242229005Q369.32423311751023 510.6202044733129 363.2178837646787 510.50333654311515Q357.1115344118472 510.38646861291744 351.64795867510315 510.38646861291744L351.64795867510315 510.38646861291744Q346.3889018162052 510.38646861291744 341.01297702710946 510.50333654311515Q335.6662692205632 510.6202044733129 332.07258036698295 511.029242229005L332.07258036698295 511.029242229005L332.07258036698295 506.8219967418866Q339.23074109159404 506.4129589861945 342.91208089282264 504.6015060681297Q346.5934206940512 502.81927013261424 347.84975094367684 498.5243736978476Q349.1352981758519 494.2002602805315 349.1352981758519 486.6330618002283L349.1352981758519 486.6330618002283L349.1352981758519 384.4028398597616Q349.1352981758519 376.601905519063 347.84975094367684 372.9205657178344Q346.5934206940512 369.2392259166058 342.91208089282264 367.8660277367824Q339.23074109159404 366.5220465395085 332.07258036698295 366.28831067911307L332.07258036698295 366.28831067911307L332.07258036698295 362.0810651919947Q335.6662692205632 362.3148010523901 341.01297702710946 362.5193199302362Q346.3889018162052 362.72383880808223 351.64795867510315 362.72383880808223L351.64795867510315 362.72383880808223Q356.2642419179136 362.72383880808223 361.2311289513172 362.5193199302362Q366.16879900217145 362.3148010523901 369.52875199535623 362.0810651919947L369.52875199535623 362.0810651919947L417.26930148113007 487.88939204985394L413.70482961009924 489.583977037721L461.0363413401809 362.72383880808223Q463.5490018394322 362.72383880808223 465.97401139103516 362.72383880808223Q468.39902094263806 362.72383880808223 470.91168144188936 362.72383880808223L470.91168144188936 362.72383880808223Q478.27436104434656 362.72383880808223 485.54938969915537 362.5193199302362Q492.7952013714148 362.3148010523901 497.64522047462066 362.0810651919947Z " fill="#f9d342" transform="matrix(0.5036419985343304,0,0,0.5036419985343304,0,79.86761949002651)"/><path d="M748.5926453406195 378.7846961201529L748.5926453406195 378.7846961201529Q748.0141738437457 384.44545291098984 747.7869171842596 389.7343351681222Q747.5596605247733 395.00255772893763 747.5596605247733 397.83293612435614L747.5596605247733 397.83293612435614Q747.5596605247733 401.4070635871838 747.7042783989917 404.52667773103923Q747.8488962732102 407.64629187489464 748.0141738437457 410.02215695134083L748.0141738437457 410.02215695134083L744.5846642551363 410.02215695134083Q743.5516794392902 399.6096700076115 741.7542858597179 393.5976983793868Q739.9775519764625 387.56506705484526 735.5150575720071 384.89996622996216Q731.0525631675516 382.2142057087621 721.6730610396685 382.2142057087621L721.6730610396685 382.2142057087621L713.6364391723854 382.2142057087621L713.6364391723854 466.85698151919667Q713.6364391723854 472.80697405847053 714.7520627734992 475.7819703281075Q715.8676863746131 478.75696659774445 719.1525780890039 479.7899514135906Q722.4168101070777 480.8435959257537 728.6766980911054 481.13283167419064L728.6766980911054 481.13283167419064L728.6766980911054 484.10782794382754Q724.7926751835239 483.81859219539064 718.84268264425 483.73595341012293Q712.8926901049762 483.6533146248552 706.7980796914838 483.6533146248552L706.7980796914838 483.6533146248552Q700.1043380848006 483.6533146248552 694.2369843307944 483.73595341012293Q688.3489708804713 483.81859219539064 684.7955031139605 484.10782794382754L684.7955031139605 484.10782794382754L684.7955031139605 481.13283167419064Q691.0347314016714 480.8435959257537 694.2989634197452 479.7899514135906Q697.583855134136 478.75696659774445 698.6994787352498 475.7819703281075Q699.8151023363638 472.80697405847053 699.8151023363638 466.85698151919667L699.8151023363638 466.85698151919667L699.8151023363638 382.2142057087621L691.7784804690806 382.2142057087621Q682.5642559117329 382.2142057087621 678.0191227220097 384.89996622996216Q673.4739895322865 387.56506705484526 671.6972556490313 393.5976983793868Q669.9205217657758 399.6096700076115 668.8668772536126 410.02215695134083L668.8668772536126 410.02215695134083L665.4580273613204 410.02215695134083Q665.7472631097572 407.64629187489464 665.829901895025 404.52667773103923Q665.8918809839757 401.4070635871838 665.8918809839757 397.83293612435614L665.8918809839757 397.83293612435614Q665.8918809839757 395.00255772893763 665.6646243244896 389.7343351681222Q665.4580273613204 384.44545291098984 664.8588961681296 378.7846961201529L664.8588961681296 378.7846961201529Q671.0981244558404 378.9499736906883 678.473636040982 379.09459156490675Q685.8284879298067 379.2392094391252 693.265978603899 379.2392094391252Q700.7034692779914 379.2392094391252 706.7980796914838 379.2392094391252L706.7980796914838 379.2392094391252Q712.8926901049762 379.2392094391252 720.2682016901177 379.2392094391252Q727.6230535789424 379.2392094391252 735.0605442530348 379.09459156490675Q742.4980349271272 378.9499736906883 748.5926453406195 378.7846961201529ZM803.4854584546845 405.4150446726669L803.4854584546845 405.4150446726669Q807.5140992364845 405.4150446726669 810.5510745950724 407.0471606817039Q813.608709649977 408.69993638705773 815.3234644442815 411.3030581229901Q817.0175595422693 413.90617985892237 817.0175595422693 417.17041187699624L817.0175595422693 417.17041187699624Q817.0175595422693 420.8891572140424 814.7243332510908 423.71953560946093Q812.4104472635954 426.54991400487944 808.5470840523308 426.54991400487944L808.5470840523308 426.54991400487944Q805.4274699084754 426.54991400487944 803.0516048320292 424.5252637658209Q800.6550800592661 422.5212732230794 800.6550800592661 418.8025278860332L800.6550800592661 418.8025278860332Q800.6550800592661 415.9721494906147 802.2252169793522 413.9681589478732Q803.7953538994384 411.9641684051316 805.7167056569123 410.76590601875006L805.7167056569123 410.76590601875006Q804.6837208410661 409.2784078839316 802.5970915130569 409.2784078839316L802.5970915130569 409.2784078839316Q797.989979234383 409.2784078839316 794.1266160231182 412.0468071903993Q790.2425931155367 414.7945468005501 787.5774922906537 419.11242333078707Q784.8917317694536 423.40964016470707 783.4042336346351 428.2440091028671Q781.9167354998167 433.0783780410272 781.9167354998167 437.2516366970456L781.9167354998167 437.2516366970456L781.9167354998167 468.7783332766705Q781.9167354998167 476.0712060765444 786.151973244786 478.5297099382583Q790.4078706860721 480.98821379997213 797.6800837896291 480.98821379997213L797.6800837896291 480.98821379997213L797.6800837896291 484.10782794382754Q794.2712338973367 483.9632100696091 788.011345913309 483.73595341012293Q781.7721176255982 483.5086967506368 774.7891402704781 483.5086967506368L774.7891402704781 483.5086967506368Q769.727514672832 483.5086967506368 764.7485278604535 483.73595341012293Q759.7488813517581 483.9632100696091 757.2283984010934 484.10782794382754L757.2283984010934 484.10782794382754L757.2283984010934 480.98821379997213Q763.3230088145857 480.98821379997213 765.9261305505181 478.75696659774445Q768.5292522864504 476.5257193955167 768.5292522864504 470.265831411489L768.5292522864504 470.265831411489L768.5292522864504 423.71953560946093Q768.5292522864504 417.0257940027778 766.1533872100042 413.82354107365467Q763.777522133558 410.6212881445316 757.2283984010934 410.6212881445316L757.2283984010934 410.6212881445316L757.2283984010934 407.5016740006762Q761.9801285539858 407.9561873196485 766.4426229584411 407.9561873196485L766.4426229584411 407.9561873196485Q770.7604994886781 407.9561873196485 774.7065014852104 407.4190352154085Q778.6525034817428 406.9025428074854 781.9167354998167 405.8695579916393L781.9167354998167 405.8695579916393L781.9167354998167 424.46328467687016Q783.5488515088537 420.1454081466332 786.6064865637583 415.7655525274455Q789.6641216186629 411.36503721194083 793.9613384525829 408.39004094230387Q798.2792149828199 405.4150446726669 803.4854584546845 405.4150446726669ZM875.1952643707251 412.8525353467593L875.1952643707251 412.8525353467593L874.5961331775343 410.02215695134083Q878.9140097077714 409.7329212029039 882.3228596000636 408.8445542612762Q885.7523691886729 407.9561873196485 888.5827475840914 406.46868918483L888.5827475840914 406.46868918483L888.417470013556 407.5016740006762Q886.9299718787374 406.01417586585774 885.5251125291868 403.7002898783623Q884.1202531796359 401.4070635871838 884.1202531796359 398.57668519176536L884.1202531796359 398.57668519176536Q884.1202531796359 395.6016889221284 885.8969870628914 392.99856718619606Q887.6737209461468 390.3954454502637 891.3924662831929 390.3954454502637L891.3924662831929 390.3954454502637Q894.8219758718022 390.3954454502637 896.4540918808391 392.482074778273Q898.086207889876 394.5687041062822 898.086207889876 397.5437003759192L898.086207889876 397.5437003759192Q898.086207889876 400.9525502682115 896.0822173471345 403.7002898783623Q894.078226804393 406.46868918483 891.103230534756 408.2454230680854L891.103230534756 408.2454230680854Q888.1282342651191 410.1874345218762 884.1822322685867 411.2204193377224Q880.2362302720544 412.2534041535685 875.1952643707251 412.8525353467593ZM859.865769703568 405.4150446726669L859.865769703568 405.4150446726669Q869.3898897056697 405.4150446726669 876.9719982539805 409.5883033286854Q884.5541068022914 413.740902288387 889.0992399920144 422.66589109729784Q893.6237134854207 431.59087990620867 893.6237134854207 445.88738975751954L893.6237134854207 445.88738975751954Q893.6237134854207 460.1632399125135 889.0992399920144 469.0055899361567Q884.5541068022914 477.8685996561167 876.9719982539805 482.0211986158183Q869.3898897056697 486.1944572718368 859.865769703568 486.1944572718368L859.865769703568 486.1944572718368Q850.4862675756849 486.1944572718368 842.8421799384233 482.0211986158183Q835.1774326048449 477.8685996561167 830.6322994151217 469.0055899361567Q826.1078259217155 460.1632399125135 826.1078259217155 445.88738975751954L826.1078259217155 445.88738975751954Q826.1078259217155 431.59087990620867 830.6322994151217 422.66589109729784Q835.1774326048449 413.740902288387 842.8421799384233 409.5883033286854Q850.4862675756849 405.4150446726669 859.865769703568 405.4150446726669ZM859.865769703568 408.39004094230387L859.865769703568 408.39004094230387Q851.3952942136295 408.39004094230387 845.9617940822787 417.17041187699624Q840.528293950928 425.9507828116886 840.528293950928 445.88738975751954L840.528293950928 445.88738975751954Q840.528293950928 465.8033370070336 845.9617940822787 474.5217288527752Q851.3952942136295 483.21946100219986 859.865769703568 483.21946100219986L859.865769703568 483.21946100219986Q868.3362451935066 483.21946100219986 873.7697453248574 474.5217288527752Q879.2032454562083 465.8033370070336 879.2032454562083 445.88738975751954L879.2032454562083 445.88738975751954Q879.2032454562083 425.9507828116886 873.7697453248574 417.17041187699624Q868.3362451935066 408.39004094230387 859.865769703568 408.39004094230387ZM859.865769703568 511.02741224477853L859.865769703568 511.02741224477853Q856.2916422407403 511.02741224477853 853.7711592900757 508.73418595360005Q851.2300166430941 506.42029996610466 851.2300166430941 502.7015546290585L851.2300166430941 502.7015546290585Q851.2300166430941 499.2720450404492 853.5439026305895 496.83420087505226Q855.857788618085 494.3756970133384 859.865769703568 494.3756970133384L859.865769703568 494.3756970133384Q863.8737507890512 494.3756970133384 866.1876367765466 496.896179964003Q868.501522764042 499.4373226109846 868.501522764042 502.84617250327693L868.501522764042 502.84617250327693Q868.501522764042 506.5649178403231 865.8984010281097 508.79616504255085Q863.2952792921774 511.02741224477853 859.865769703568 511.02741224477853ZM965.6227551498981 367.4838422347959L965.6227551498981 367.4838422347959L965.6227551498981 470.265831411489Q965.6227551498981 476.5257193955167 968.2258768858305 478.75696659774445Q970.8289986217628 480.98821379997213 976.9236090352551 480.98821379997213L976.9236090352551 480.98821379997213L976.9236090352551 484.10782794382754Q974.4031260845904 483.9632100696091 969.2795213979936 483.73595341012293Q964.1352570150797 483.5086967506368 958.929013543215 483.5086967506368L958.929013543215 483.5086967506368Q953.8673879455688 483.5086967506368 948.6611444737041 483.73595341012293Q943.4549010018395 483.9632100696091 940.9344180511748 484.10782794382754L940.9344180511748 484.10782794382754L940.9344180511748 480.98821379997213Q947.0290284646671 480.98821379997213 949.6321502005995 478.75696659774445Q952.235271936532 476.5257193955167 952.235271936532 470.265831411489L952.235271936532 470.265831411489L952.235271936532 385.3338198526175Q952.235271936532 378.64007824593443 949.8594068600858 375.4378253168113Q947.4835417836395 372.25623208400515 940.9344180511748 372.25623208400515L940.9344180511748 372.25623208400515L940.9344180511748 369.11595824383284Q945.6861482040672 369.57047156280515 950.1486426085227 369.57047156280515L950.1486426085227 369.57047156280515Q954.4665191387596 369.57047156280515 958.4125211352919 369.05397915488203Q962.3585231318243 368.53748674695896 965.6227551498981 367.4838422347959ZM1053.695040548942 407.5016740006762L1053.695040548942 407.5016740006762L1053.695040548942 410.47667027031315Q1050.8646621535236 410.76590601875006 1048.4887970770774 412.99715322097774Q1046.092272304314 415.22840042320547 1044.026302672622 420.8891572140424L1044.026302672622 420.8891572140424L1019.6272013223355 484.85157701123677L1017.0860586753539 484.85157701123677L989.7326207517476 418.94714576025166Q986.902242356329 413.16243079151315 984.1545027461782 411.8815296198639Q981.3861034397105 410.6212881445316 979.6093695564552 410.6212881445316L979.6093695564552 410.6212881445316L979.6093695564552 407.5016740006762Q982.8736015745291 407.9561873196485 986.4477290373568 408.1627842828177Q990.0218565001844 408.39004094230387 994.195115156203 408.39004094230387L994.195115156203 408.39004094230387Q998.8022274348768 408.39004094230387 1003.9258321214738 408.10080519386696Q1009.0700965043877 407.7909097491131 1013.5325909088431 407.5016740006762L1013.5325909088431 407.5016740006762L1013.5325909088431 410.6212881445316Q1009.813845571797 410.6212881445316 1006.9008283911107 411.1377805524547Q1004.0084709067414 411.6749326566947 1003.2647218393322 414.278054392627Q1002.5209727719231 416.88117612855933 1005.0414557225877 423.12040441627016L1005.0414557225877 423.12040441627016L1023.3459466593818 468.4890975282336L1022.457579717754 468.7783332766705L1039.398530697631 424.46328467687016Q1041.3405421514217 419.54627695344243 1040.968667617717 416.6539194690732Q1040.5967930840125 413.740902288387 1037.9110325628126 412.2534041535685Q1035.2459317379294 410.76590601875006 1029.8950703918463 410.47667027031315L1029.8950703918463 410.47667027031315L1029.8950703918463 407.5016740006762Q1032.5601712167295 407.64629187489464 1034.5021826705201 407.72893066016235Q1036.4235344279941 407.7909097491131 1038.2829070965172 407.8735485343808Q1040.1422797650403 407.9561873196485 1042.373526967268 407.9561873196485L1042.373526967268 407.9561873196485Q1045.8030365558775 407.9561873196485 1048.5507761660283 407.7909097491131Q1051.298515776179 407.64629187489464 1053.695040548942 407.5016740006762ZM1016.796822926917 483.6533146248552L1019.6272013223355 484.85157701123677L1014.5655757246893 497.78454690563075Q1013.0780775898709 501.5032922426769 1011.5079406697846 504.0444348896585Q1009.9584634460155 506.5649178403231 1008.1610698664431 508.19703384936L1008.1610698664431 508.19703384936Q1005.7852047899969 510.42828105158776 1002.5209727719231 511.2546689042647Q999.2360810575323 512.0810567569415 996.5709802326492 512.0810567569415L996.5709802326492 512.0810567569415Q993.7406018372307 512.0810567569415 991.4267158497353 511.02741224477853Q989.1334895585569 509.9944274289324 987.7906092979567 507.9904368861908Q986.4477290373568 505.96578664713235 986.4477290373568 503.15606794803074L986.4477290373568 503.15606794803074Q986.4477290373568 499.58194048520306 988.534358365366 497.41267237192613Q990.6209876933752 495.2640639549661 994.3397330304215 495.2640639549661L994.3397330304215 495.2640639549661Q997.4593471742769 495.2640639549661 999.6905943765046 497.0407978382215Q1001.9218415787323 498.8381914177938 1001.9218415787323 502.24704131008616L1001.9218415787323 502.24704131008616Q1001.9218415787323 504.7881839570677 1000.7235791923507 506.42029996610466Q999.5459765022861 508.0524159751416 997.9138604932491 508.94078291676925L997.9138604932491 508.94078291676925Q998.2030962416861 509.10606048730466 998.4303529011722 509.10606048730466Q998.6576095606583 509.10606048730466 998.8022274348768 509.10606048730466L998.8022274348768 509.10606048730466Q1002.81020852036 509.10606048730466 1005.9298226642154 506.33766118083696Q1009.0700965043877 503.58992157068616 1011.4459615808339 497.49531115719384L1011.4459615808339 497.49531115719384L1016.796822926917 483.6533146248552ZM1033.9030514773294 363.1659657045589L1033.9030514773294 363.1659657045589Q1035.679785360585 364.65346383937737 1035.907042020071 367.04998861214045Q1036.134298679557 369.42585368858664 1033.9030514773294 372.4008499582236L1033.9030514773294 372.4008499582236Q1031.6718042751017 375.23122835364205 1028.4075722570278 378.04094705274366Q1025.1226805426372 380.87132544816217 1020.7428249234493 384.81732744469446Q1016.3423096079447 388.7633294412268 1010.3923170686708 395.00255772893763L1010.3923170686708 395.00255772893763L1008.7602010596339 393.65967746833763Q1013.3673133383078 386.38746436478067 1016.1357126447755 381.181220892916Q1018.8834522549262 375.9749774210513 1020.8048040124002 372.09095451346974Q1022.7468154661909 368.2275913022051 1024.9780626684187 365.3972129067866L1024.9780626684187 365.3972129067866Q1027.2093098706464 362.4222166371497 1029.6678137323602 362.1329808887128Q1032.1263175940744 361.8437451402758 1033.9030514773294 363.1659657045589ZM1120.467179045238 382.81333690195294L1120.467179045238 382.81333690195294L1120.467179045238 407.64629187489464L1142.4904153190782 407.64629187489464L1142.4904153190782 410.6212881445316L1120.467179045238 410.6212881445316L1120.467179045238 468.19986177979666Q1120.467179045238 475.1828391349167 1123.0083216922194 478.0132175303352Q1125.528804642884 480.8435959257537 1129.9912990473395 480.8435959257537L1129.9912990473395 480.8435959257537Q1134.4537934517948 480.8435959257537 1137.7386851661859 477.1868296776583Q1141.0029171842598 473.55072312587976 1143.378782260706 464.91497006540584L1143.378782260706 464.91497006540584L1146.3537785303429 465.65871913281507Q1144.8662803955244 474.294472193289 1140.4864247763367 480.2444647325629Q1136.0859094608318 486.1944572718368 1127.0163027777025 486.1944572718368L1127.0163027777025 486.1944572718368Q1121.9546771800565 486.1944572718368 1118.6904451619826 484.9342157965045Q1115.4262131439086 483.6533146248552 1112.8850704969273 481.27744954840904L1112.8850704969273 481.27744954840904Q1109.6208384788533 477.8685996561167 1108.360597003521 473.09620980690744Q1107.0796958318715 468.3444796540151 1107.0796958318715 460.4524756609504L1107.0796958318715 460.4524756609504L1107.0796958318715 410.6212881445316L1092.8038456768777 410.6212881445316L1092.8038456768777 407.64629187489464L1107.0796958318715 407.64629187489464L1107.0796958318715 384.89996622996216Q1110.7984411689176 384.7346886594268 1114.2279507575272 384.3008350367714Q1117.6574603461363 383.84632171779907 1120.467179045238 382.81333690195294ZM1195.4412169793522 405.4150446726669L1195.4412169793522 405.4150446726669Q1199.4698577611525 405.4150446726669 1202.50683311974 407.0471606817039Q1205.5644681746448 408.69993638705773 1207.2792229689494 411.3030581229901Q1208.9733180669373 413.90617985892237 1208.9733180669373 417.17041187699624L1208.9733180669373 417.17041187699624Q1208.9733180669373 420.8891572140424 1206.6800917757587 423.71953560946093Q1204.3662057882634 426.54991400487944 1200.5028425769988 426.54991400487944L1200.5028425769988 426.54991400487944Q1197.3832284331434 426.54991400487944 1195.0073633566972 424.5252637658209Q1192.6108385839339 422.5212732230794 1192.6108385839339 418.8025278860332L1192.6108385839339 418.8025278860332Q1192.6108385839339 415.9721494906147 1194.18097550402 413.9681589478732Q1195.751112424106 411.9641684051316 1197.67246418158 410.76590601875006L1197.67246418158 410.76590601875006Q1196.6394793657341 409.2784078839316 1194.5528500377245 409.2784078839316L1194.5528500377245 409.2784078839316Q1189.9457377590506 409.2784078839316 1186.082374547786 412.0468071903993Q1182.1983516402047 414.7945468005501 1179.5332508153215 419.11242333078707Q1176.8474902941211 423.40964016470707 1175.3599921593027 428.2440091028671Q1173.8724940244847 433.0783780410272 1173.8724940244847 437.2516366970456L1173.8724940244847 437.2516366970456L1173.8724940244847 468.7783332766705Q1173.8724940244847 476.0712060765444 1178.107731769454 478.5297099382583Q1182.3636292107399 480.98821379997213 1189.635842314297 480.98821379997213L1189.635842314297 480.98821379997213L1189.635842314297 484.10782794382754Q1186.2269924220045 483.9632100696091 1179.9671044379766 483.73595341012293Q1173.7278761502662 483.5086967506368 1166.7448987951461 483.5086967506368L1166.7448987951461 483.5086967506368Q1161.6832731974996 483.5086967506368 1156.7042863851211 483.73595341012293Q1151.704639876426 483.9632100696091 1149.1841569257613 484.10782794382754L1149.1841569257613 484.10782794382754L1149.1841569257613 480.98821379997213Q1155.2787673392536 480.98821379997213 1157.8818890751859 478.75696659774445Q1160.4850108111182 476.5257193955167 1160.4850108111182 470.265831411489L1160.4850108111182 470.265831411489L1160.4850108111182 423.71953560946093Q1160.4850108111182 417.0257940027778 1158.109145734672 413.82354107365467Q1155.7332806582258 410.6212881445316 1149.1841569257613 410.6212881445316L1149.1841569257613 410.6212881445316L1149.1841569257613 407.5016740006762Q1153.9358870786536 407.9561873196485 1158.398381483109 407.9561873196485L1158.398381483109 407.9561873196485Q1162.7162580133459 407.9561873196485 1166.662260009878 407.4190352154085Q1170.6082620064108 406.9025428074854 1173.8724940244847 405.8695579916393L1173.8724940244847 405.8695579916393L1173.8724940244847 424.46328467687016Q1175.5046100335212 420.1454081466332 1178.5622450884262 415.7655525274455Q1181.6198801433306 411.36503721194083 1185.9170969772508 408.39004094230387Q1190.2349735074877 405.4150446726669 1195.4412169793522 405.4150446726669ZM1273.6794869315409 411.2204193377224L1273.6794869315409 411.2204193377224L1273.1010154346668 408.39004094230387Q1277.398232268587 407.64629187489464 1280.827741857196 406.6133070590485Q1284.2572514458052 405.55966254688536 1287.066970144907 403.78292866363L1287.066970144907 403.78292866363L1286.9223522706884 404.81591347947614Q1285.43485413587 403.3284153446577 1284.0299947863195 401.0351890534792Q1282.6044757404516 398.7213030659838 1282.6044757404516 395.8909246705653L1282.6044757404516 395.8909246705653Q1282.6044757404516 392.9159284009284 1284.4018693200242 390.31280666499606Q1286.1786032032792 387.7096849290637 1289.8973485403253 387.7096849290637L1289.8973485403253 387.7096849290637Q1293.3268581289349 387.7096849290637 1294.9589741379718 389.8789530423407Q1296.5910901470088 392.02756145930067 1296.5910901470088 394.71332198050067L1296.5910901470088 394.71332198050067Q1296.5910901470088 398.12217187279305 1294.5044608189996 400.89057117926075Q1292.4384911873071 403.63831078941155 1289.6081127918887 405.55966254688536L1289.6081127918887 405.55966254688536Q1286.3232210774977 407.7909097491131 1282.5424966515006 408.98917213549464Q1278.741112529187 410.1874345218762 1273.6794869315409 411.2204193377224ZM1282.9143711852057 405.8695579916393L1282.9143711852057 405.8695579916393L1282.9143711852057 468.03458420926125Q1282.9143711852057 474.7283258159444 1285.3728750469195 477.9305787450675Q1287.8107192123161 481.13283167419064 1294.2152250705626 481.13283167419064L1294.2152250705626 481.13283167419064L1294.2152250705626 484.252445818046Q1289.6081127918887 483.81859219539064 1285.0010005132149 483.81859219539064L1285.0010005132149 483.81859219539064Q1280.6831239829776 483.81859219539064 1276.7371219864453 484.252445818046Q1272.791119989913 484.7069591370183 1269.5268879718392 485.88456182708296L1269.5268879718392 485.88456182708296L1269.5268879718392 468.3444796540151Q1265.808142634793 478.0132175303352 1259.031762242842 482.10383740108597Q1252.276041547208 486.1944572718368 1245.1277866215528 486.1944572718368L1245.1277866215528 486.1944572718368Q1239.9215431496882 486.1944572718368 1236.0581799384236 484.7069591370183Q1232.194816727159 483.21946100219986 1229.653674080177 480.5337004809998L1229.653674080177 480.5337004809998Q1226.8232956847587 477.5587042113629 1225.7903108689125 472.80697405847053Q1224.7573260530667 468.03458420926125 1224.7573260530667 461.0516068541412L1224.7573260530667 461.0516068541412L1224.7573260530667 423.71953560946093Q1224.7573260530667 417.0257940027778 1222.3608012803033 413.82354107365467Q1219.9849362038572 410.6212881445316 1213.4358124713926 410.6212881445316L1213.4358124713926 410.6212881445316L1213.4358124713926 407.5016740006762Q1218.2082023206017 407.9561873196485 1222.670696725057 407.9561873196485L1222.670696725057 407.9561873196485Q1226.9885732552943 407.9561873196485 1230.9139155555094 407.4190352154085Q1234.8599175520417 406.9025428074854 1238.1448092664327 405.8695579916393L1238.1448092664327 405.8695579916393L1238.1448092664327 464.3158388722151Q1238.1448092664327 468.9436108472059 1238.7232807633068 472.80697405847053Q1239.322411956497 476.67033726973517 1241.6982770329437 479.04620234618136Q1244.0948018057065 481.42206742262755 1249.4456631517896 481.42206742262755L1249.4456631517896 481.42206742262755Q1255.251037816845 481.42206742262755 1259.7755113102512 477.8685996561167Q1264.3206444999746 474.294472193289 1266.923766235907 468.19986177979666Q1269.5268879718392 462.0845916699874 1269.5268879718392 454.50248312167656L1269.5268879718392 454.50248312167656L1269.5268879718392 423.71953560946093Q1269.5268879718392 417.0257940027778 1267.151022895393 413.82354107365467Q1264.7544981226297 410.6212881445316 1258.2260340864823 410.6212881445316L1258.2260340864823 410.6212881445316L1258.2260340864823 407.5016740006762Q1262.9777642393742 407.9561873196485 1267.44025864383 407.9561873196485L1267.44025864383 407.9561873196485Q1271.7581351740669 407.9561873196485 1275.704137170599 407.4190352154085Q1279.6294794708147 406.9025428074854 1282.9143711852057 405.8695579916393ZM1255.829509313719 511.02741224477853L1255.829509313719 511.02741224477853Q1252.276041547208 511.02741224477853 1249.7348989002267 508.73418595360005Q1247.214415949562 506.42029996610466 1247.214415949562 502.7015546290585L1247.214415949562 502.7015546290585Q1247.214415949562 499.2720450404492 1249.5076422407406 496.83420087505226Q1251.8215282282358 494.3756970133384 1255.829509313719 494.3756970133384L1255.829509313719 494.3756970133384Q1259.8581500955188 494.3756970133384 1262.1513763866974 496.896179964003Q1264.4652623741927 499.4373226109846 1264.4652623741927 502.84617250327693L1264.4652623741927 502.84617250327693Q1264.4652623741927 506.5649178403231 1261.8621406382604 508.79616504255085Q1259.259018902328 511.02741224477853 1255.829509313719 511.02741224477853ZM1338.9847869893351 405.4150446726669L1338.9847869893351 405.4150446726669Q1343.7571768385442 405.4150446726669 1348.219671243 406.6133070590485Q1352.6821656474553 407.7909097491131 1356.2356334139658 410.1874345218762L1356.2356334139658 410.1874345218762Q1359.6651430025754 412.4186817241039 1361.4418768858304 415.3110392084732Q1363.239270465403 418.20339669284243 1363.239270465403 421.63290628145165L1363.239270465403 421.63290628145165Q1363.239270465403 425.6408873669348 1361.0080232631753 427.81015548021173Q1358.7767760609477 429.95876389717176 1355.3472664723386 429.95876389717176L1355.3472664723386 429.95876389717176Q1352.0830344542646 429.95876389717176 1349.6245305925509 428.0374121396979Q1347.1660267308366 426.0954006859071 1347.1660267308366 422.5212732230794L1347.1660267308366 422.5212732230794Q1347.1660267308366 419.11242333078707 1349.0253993993597 417.0257940027778Q1350.8847720678827 414.93916467476856 1353.4259147148646 414.3400334815778L1353.4259147148646 414.3400334815778Q1351.9384165800461 411.6749326566947 1348.137032457732 409.8775390771224Q1344.3356483354182 408.10080519386696 1340.038431501498 408.10080519386696L1340.038431501498 408.10080519386696Q1336.319686164452 408.10080519386696 1332.6009408274058 409.8775390771224Q1328.8821954903597 411.6749326566947 1325.7419216501876 415.7655525274455Q1322.6223075063322 419.8561723981963 1320.7009557488582 426.92178853858405Q1318.7589442950675 433.98740467897176 1318.7589442950675 444.54450949691955L1318.7589442950675 444.54450949691955Q1318.7589442950675 457.622097265532 1321.7339405647044 465.36948338437816Q1324.7089368343413 473.09620980690744 1329.5433057725013 476.443080610249Q1334.3776747106613 479.7899514135906 1340.1830493757166 479.7899514135906L1340.1830493757166 479.7899514135906Q1344.0464125869812 479.7899514135906 1348.0543936724644 478.30245327877213Q1352.0830344542646 476.8149551439537 1355.6571619170923 473.46808434061205Q1359.2106296836032 470.12121353727053 1361.7517723305846 464.4811164427505L1361.7517723305846 464.4811164427505L1364.582150726003 465.51410125859667Q1363.0946525911845 470.265831411489 1359.6651430025754 475.100200349649Q1356.2356334139658 479.93456928780904 1350.7401541936642 483.0748431279814Q1345.244674973363 486.1944572718368 1337.2080531060797 486.1944572718368L1337.2080531060797 486.1944572718368Q1327.9731688524148 486.1944572718368 1320.5356781783225 481.42206742262755Q1313.0981875042303 476.67033726973517 1308.7183318850425 467.82798724609205Q1304.3384762658548 458.964977526132 1304.3384762658548 446.7757566991473L1304.3384762658548 446.7757566991473Q1304.3384762658548 434.56587617584563 1308.7183318850425 425.2690128332302Q1313.0981875042303 415.9721494906147 1320.9901914972947 410.7039269297993Q1328.8821954903597 405.4150446726669 1338.9847869893351 405.4150446726669ZM1432.2633158602434 485.14081275967374L1432.2633158602434 485.14081275967374Q1426.1480457504344 485.14081275967374 1421.685551345979 482.84758646849525Q1417.2230569415233 480.5337004809998 1414.9298306503447 476.38110152129826Q1412.6159446628494 472.20784286527976 1412.6159446628494 466.7123636449782L1412.6159446628494 466.7123636449782Q1412.6159446628494 460.1632399125135 1415.6735797177544 455.989981256495Q1418.7105550763422 451.83738229679346 1423.4829449255512 449.29623964981187Q1428.2346750784436 446.7757566991473 1433.5235573355758 445.0610019048426Q1438.7917798963913 443.346247110538 1443.5641697456003 441.79676988676874Q1448.3158998984932 440.2266329666826 1451.3735349533977 438.14000363867336Q1454.410510311985 436.0533743106641 1454.410510311985 432.64452441837176L1454.410510311985 432.64452441837176L1454.410510311985 423.40964016470707Q1454.410510311985 417.17041187699624 1452.5511376434624 413.90617985892237Q1450.691764974939 410.6212881445316 1447.5721508310835 409.5056645434177Q1444.4525366872285 408.39004094230387 1440.5891734759634 408.39004094230387L1440.5891734759634 408.39004094230387Q1436.8704281389173 408.39004094230387 1432.635190393948 409.44368545446696Q1428.3792929526621 410.47667027031315 1425.8588100019974 413.740902288387L1425.8588100019974 413.740902288387Q1428.6891883974158 414.3400334815778 1430.775817725425 416.715898558024Q1432.8417873571175 419.11242333078707 1432.8417873571175 422.8311686678332L1432.8417873571175 422.8311686678332Q1432.8417873571175 426.54991400487944 1430.4659222806713 428.6985224218394Q1428.090057204225 430.84713083879944 1424.371311867179 430.84713083879944L1424.371311867179 430.84713083879944Q1420.0534353369421 430.84713083879944 1418.0494447942006 428.09939122864864Q1416.045454251459 425.35165161849784 1416.045454251459 421.9221420298886L1416.045454251459 421.9221420298886Q1416.045454251459 418.058778818624 1417.9668060089325 415.6829137421778Q1419.9088174627236 413.3070486657316 1422.8838137323605 411.2204193377224L1422.8838137323605 411.2204193377224Q1426.3133233209696 408.8445542612762 1431.7261637560036 407.1297994669716Q1437.1596638873543 405.4150446726669 1443.9980233682559 405.4150446726669L1443.9980233682559 405.4150446726669Q1450.1132934780653 405.4150446726669 1454.410510311985 406.8405637185346Q1458.7283868422223 408.2454230680854 1461.5587652376407 410.93118358928547L1461.5587652376407 410.93118358928547Q1465.4221284489054 414.48465135579625 1466.6203908352868 419.62891573871013Q1467.7979935253516 424.75252042530707 1467.7979935253516 431.90077535096253L1467.7979935253516 431.90077535096253L1467.7979935253516 473.24082768112595Q1467.7979935253516 476.9595730181721 1468.9136171264654 478.61234872352594Q1470.0292407275792 480.2444647325629 1472.4257655003425 480.2444647325629L1472.4257655003425 480.2444647325629Q1474.0578815093795 480.2444647325629 1475.5453796441975 479.5007156651537Q1477.032877779016 478.75696659774445 1479.1195071070256 477.1248505887075L1479.1195071070256 477.1248505887075L1480.7516231160625 479.64533353937213Q1477.6320089722071 482.0211986158183 1474.8016305767887 483.5913355359045Q1471.97125218137 485.14081275967374 1467.2195220284775 485.14081275967374L1467.2195220284775 485.14081275967374Q1462.9016454982407 485.14081275967374 1460.0712671028223 483.6533146248552Q1457.2408887074039 482.1658164900368 1455.836029357853 479.2734590056675Q1454.410510311985 476.38110152129826 1454.410510311985 471.91860711684285L1454.410510311985 471.91860711684285Q1450.4025292265023 478.61234872352594 1444.8244112209327 481.87658074159987Q1439.2462932153635 485.14081275967374 1432.2633158602434 485.14081275967374ZM1437.6141772063265 479.1908202203998L1437.6141772063265 479.1908202203998Q1442.5105252334374 479.1908202203998 1446.7664226747238 476.38110152129826Q1451.001660419693 473.55072312587976 1454.410510311985 467.8899663350428L1454.410510311985 467.8899663350428L1454.410510311985 438.73913483186413Q1452.6337764287296 441.2596177825288 1449.2042668401205 442.9743725768334Q1445.7954169478285 444.689127371138 1441.7667761660282 446.40388216544267Q1437.758795080545 448.1186369597473 1434.1226885287665 450.41186325092576Q1430.4659222806713 452.72574923842114 1428.090057204225 456.44449457546733Q1425.714192127779 460.1632399125135 1425.714192127779 466.1132324517874L1425.714192127779 466.1132324517874Q1425.714192127779 472.0632249910613 1428.916445056902 475.63735245388904Q1432.0980382897083 479.1908202203998 1437.6141772063265 479.1908202203998ZM1444.9070500062007 396.0562022411007L1441.9320537365638 396.0562022411007L1441.9320537365638 387.8749624995991Q1448.0266641500561 385.47843772683603 1450.6297858859884 382.2968444940298Q1453.2329076219207 379.09459156490675 1453.2329076219207 374.77671503466973L1453.2329076219207 374.77671503466973Q1453.2329076219207 370.45883850443283 1450.8570425454745 367.79373767954974Q1448.4605177727112 365.1079771583497 1443.9980233682559 365.1079771583497L1443.9980233682559 365.1079771583497Q1442.5105252334374 365.1079771583497 1440.444555601745 365.562490477322Q1438.3579262737358 365.9963440999774 1437.1596638873543 367.4838422347959L1437.1596638873543 367.4838422347959Q1439.2462932153635 367.9383555537682 1440.5891734759634 369.48783277753745Q1441.9320537365638 371.0579696976236 1441.9320537365638 373.5784526482882L1441.9320537365638 373.5784526482882Q1441.9320537365638 376.71872648846056 1439.9900422827727 378.4128215864483Q1438.048030828982 380.1275763807529 1435.2383121298803 380.1275763807529L1435.2383121298803 380.1275763807529Q1432.407933734462 380.1275763807529 1430.6105401548898 378.4128215864483Q1428.8338062716343 376.71872648846056 1428.8338062716343 373.88834809304205L1428.8338062716343 373.88834809304205Q1428.8338062716343 371.0579696976236 1430.5485610659389 368.82672249539587Q1432.2633158602434 366.59547529316814 1434.6391809366896 365.1079771583497L1434.6391809366896 365.1079771583497Q1436.2712969457266 364.07499234250355 1439.4735498748496 363.1039866156081Q1442.675802803973 362.1329808887128 1446.8284017636743 362.1329808887128L1446.8284017636743 362.1329808887128Q1453.8320388151114 362.1329808887128 1458.6664077532714 365.2525950325682Q1463.5007766914314 368.37220917642355 1463.5007766914314 374.0329659672605L1463.5007766914314 374.0329659672605Q1463.5007766914314 379.838340632316 1458.0672765600807 383.6190650583129Q1452.6337764287296 387.4204491806268 1444.9070500062007 389.19718306388216L1444.9070500062007 389.19718306388216L1444.9070500062007 396.0562022411007ZM1521.6578218235704 405.4150446726669L1521.6578218235704 405.4150446726669Q1531.1819418256719 405.4150446726669 1538.7640503739826 409.5883033286854Q1546.3461589222939 413.740902288387 1550.8912921120168 422.66589109729784Q1555.415765605423 431.59087990620867 1555.415765605423 445.88738975751954L1555.415765605423 445.88738975751954Q1555.415765605423 460.1632399125135 1550.8912921120168 469.0055899361567Q1546.3461589222939 477.8685996561167 1538.7640503739826 482.0211986158183Q1531.1819418256719 486.1944572718368 1521.6578218235704 486.1944572718368L1521.6578218235704 486.1944572718368Q1512.278319695687 486.1944572718368 1504.6135723621087 482.0211986158183Q1496.969484724847 477.8685996561167 1492.424351535124 469.0055899361567Q1487.8792183454007 460.1632399125135 1487.8792183454007 445.88738975751954L1487.8792183454007 445.88738975751954Q1487.8792183454007 431.59087990620867 1492.424351535124 422.66589109729784Q1496.969484724847 413.740902288387 1504.6135723621087 409.5883033286854Q1512.278319695687 405.4150446726669 1521.6578218235704 405.4150446726669ZM1521.6578218235704 408.39004094230387L1521.6578218235704 408.39004094230387Q1513.1666866373148 408.39004094230387 1507.7538462022808 417.17041187699624Q1502.32034607093 425.9507828116886 1502.32034607093 445.88738975751954L1502.32034607093 445.88738975751954Q1502.32034607093 465.8033370070336 1507.7538462022808 474.5217288527752Q1513.1666866373148 483.21946100219986 1521.6578218235704 483.21946100219986L1521.6578218235704 483.21946100219986Q1530.128297313509 483.21946100219986 1535.5617974448596 474.5217288527752Q1540.9952975762108 465.8033370070336 1540.9952975762108 445.88738975751954L1540.9952975762108 445.88738975751954Q1540.9952975762108 425.9507828116886 1535.5617974448596 417.17041187699624Q1530.128297313509 408.39004094230387 1521.6578218235704 408.39004094230387ZM1647.49603208995 378.04094705274366L1647.49603208995 378.04094705274366L1683.795118518784 471.608711672089Q1686.0263657210116 477.26946846292594 1688.8567441164305 479.12884113144906Q1691.6664628155318 480.98821379997213 1694.062987588295 481.13283167419064L1694.062987588295 481.13283167419064L1694.062987588295 484.10782794382754Q1691.0879913186582 483.81859219539064 1686.7701147884209 483.73595341012293Q1682.452238258184 483.6533146248552 1678.1343617279472 483.6533146248552L1678.1343617279472 483.6533146248552Q1672.3289870628914 483.6533146248552 1667.2880211615625 483.73595341012293Q1662.2263955639164 483.81859219539064 1659.1067814200605 484.10782794382754L1659.1067814200605 484.10782794382754L1659.1067814200605 481.13283167419064Q1666.6888899683713 480.8435959257537 1668.775519296381 478.5297099382583Q1670.841488928073 476.21582395076285 1667.866492658436 468.633715402452L1667.866492658436 468.633715402452L1640.2031592900757 394.71332198050067L1642.579024366522 392.7713105267099L1616.7130845777342 460.01862203829506Q1614.3165598049713 465.9686145775689 1613.8827061823158 470.0592344483197Q1613.4281928633436 474.1498543190706 1614.6884343386755 476.5257193955167Q1615.969335510325 478.9015844719629 1619.0063108689128 479.93456928780904Q1622.0639459238173 480.98821379997213 1626.6710582024912 481.13283167419064L1626.6710582024912 481.13283167419064L1626.6710582024912 484.10782794382754Q1622.4977995464728 483.81859219539064 1617.9733260530666 483.73595341012293Q1613.4281928633436 483.6533146248552 1609.564829652079 483.6533146248552L1609.564829652079 483.6533146248552Q1605.8460843150328 483.6533146248552 1603.2429625791005 483.73595341012293Q1600.6398408431683 483.81859219539064 1598.4085936409401 484.10782794382754L1598.4085936409401 484.10782794382754L1598.4085936409401 481.13283167419064Q1601.383589910577 480.38908260678136 1604.503204054433 477.6413429966306Q1607.6228181982879 474.8936033864798 1610.1639608452697 468.19986177979666L1610.1639608452697 468.19986177979666L1645.1201670135038 378.04094705274366Q1645.7192982066945 378.04094705274366 1646.2977697035685 378.04094705274366Q1646.8969008967592 378.04094705274366 1647.49603208995 378.04094705274366ZM1622.8076949912265 441.2596177825288L1665.6352454562084 441.2596177825288L1665.6352454562084 444.2346140521657L1621.320196856408 444.2346140521657L1622.8076949912265 441.2596177825288ZM1737.3450513722491 378.7846961201529L1737.3450513722491 378.7846961201529L1737.3450513722491 381.75969238978985Q1732.283425774603 381.9249699603252 1729.6803040386703 382.8753159909037Q1727.0771823027385 383.84632171779907 1726.1888153611108 386.44944345373136Q1725.3004484194826 389.05256518966377 1725.3004484194826 394.5687041062822L1725.3004484194826 394.5687041062822L1725.3004484194826 468.3444796540151Q1725.3004484194826 473.69534100009827 1726.1888153611108 476.38110152129826Q1727.0771823027385 479.04620234618136 1729.6803040386703 479.93456928780904Q1732.283425774603 480.8435959257537 1737.3450513722491 481.13283167419064L1737.3450513722491 481.13283167419064L1737.3450513722491 484.10782794382754Q1733.91554178364 483.81859219539064 1728.791937097043 483.73595341012293Q1723.647672714129 483.6533146248552 1718.4414292422643 483.6533146248552L1718.4414292422643 483.6533146248552Q1712.6567142735257 483.6533146248552 1707.5950886758797 483.73595341012293Q1702.5334630782336 483.81859219539064 1699.4138489343782 484.10782794382754L1699.4138489343782 484.10782794382754L1699.4138489343782 481.13283167419064Q1704.4754745320242 480.8435959257537 1707.0785962679565 479.93456928780904Q1709.6817180038888 479.04620234618136 1710.5700849455166 476.38110152129826Q1711.4584518871443 473.69534100009827 1711.4584518871443 468.3444796540151L1711.4584518871443 468.3444796540151L1711.4584518871443 394.5687041062822Q1711.4584518871443 389.05256518966377 1710.5700849455166 386.44944345373136Q1709.6817180038888 383.84632171779907 1707.0785962679565 382.8753159909037Q1704.4754745320242 381.9249699603252 1699.4138489343782 381.75969238978985L1699.4138489343782 381.75969238978985L1699.4138489343782 378.7846961201529Q1702.5334630782336 378.9499736906883 1707.5950886758797 379.09459156490675Q1712.6567142735257 379.2392094391252 1718.4414292422643 379.2392094391252L1718.4414292422643 379.2392094391252Q1723.647672714129 379.2392094391252 1728.791937097043 379.09459156490675Q1733.91554178364 378.9499736906883 1737.3450513722491 378.7846961201529Z " fill="#292826" transform="matrix(0.5036419985343304,0,0,0.5036419985343304,0,79.86761949002651)"/></g></svg>